<mxfile host="app.diagrams.net" modified="2023-12-09T15:22:13.694Z" agent="Mozilla/5.0 (Macintosh; Intel Mac OS X 10_15_7) AppleWebKit/537.36 (KHTML, like Gecko) Chrome/119.0.0.0 Safari/537.36 Edg/119.0.0.0" version="22.1.7" etag="5uLhCx1BRjhy1qd5aP3E" type="github">
  <diagram name="PÃ¡gina-1" id="YrDm4Z0UWJSQOG9nXYRu">
    <mxGraphModel>
      <root>
        <mxCell id="0" />
        <mxCell id="1" parent="0" />
      </root>
    </mxGraphModel>
  </diagram>
</mxfile>
